<?xml version="1.0" encoding="UTF-8"?>
<svg xmlns="http://www.w3.org/2000/svg" xmlns:xlink="http://www.w3.org/1999/xlink" viewBox="0 0 24 24" width="24px" height="24px">
<g id="surface285795497">
<path style=" stroke:none;fill-rule:nonzero;fill:rgb(10.196079%,73.725492%,61.176473%);fill-opacity:1;" d="M 10 1 C 8.90625 1 8 1.90625 8 3 L 8 13.625 L 6.347656 12.855469 C 5.40625 12.417969 4.28125 12.628906 3.5625 13.378906 L 2.007812 15.007812 L 8.121094 21.121094 C 8.683594 21.683594 9.445312 22 10.242188 22 L 17 22 C 18.644531 22 20 20.644531 20 19 L 20 12.191406 C 20 11.222656 19.289062 10.378906 18.332031 10.21875 L 18.328125 10.21875 L 13 9.332031 L 13 3 C 13 1.90625 12.09375 1 11 1 Z M 10 3 L 11 3 L 11 11.027344 L 18 12.195312 L 18 19 C 18 19.566406 17.566406 20 17 20 L 10.242188 20 C 9.976562 20 9.722656 19.894531 9.535156 19.707031 L 4.804688 14.976562 L 5.007812 14.761719 C 5.136719 14.625 5.332031 14.589844 5.5 14.667969 L 10 16.769531 Z M 10 3 "/>
</g>
</svg>
